<?xml version="1.0"?>
<svg xmlns="http://www.w3.org/2000/svg" xmlns:xlink="http://www.w3.org/1999/xlink" xmlns:svgjs="http://svgjs.com/svgjs" version="1.1" width="512" height="512" x="0" y="0" viewBox="0 0 496 496" style="enable-background:new 0 0 512 512" xml:space="preserve" class=""><g><path xmlns="http://www.w3.org/2000/svg" d="m248 240c-70.574219 0-128 57.425781-128 128s57.425781 128 128 128 128-57.425781 128-128-57.425781-128-128-128zm0 240c-59.054688 0-107.464844-45.976562-111.59375-104h23.59375v-16h-23.59375c1.769531-24.863281 11.640625-47.472656 27.050781-65.230469l16.664063 16.664063 11.3125-11.3125-16.664063-16.664063c17.757813-15.410156 40.375-25.28125 65.230469-27.050781v23.59375h16v-23.59375c24.863281 1.769531 47.472656 11.640625 65.230469 27.050781l-16.664063 16.664063 11.3125 11.3125 16.664063-16.664063c15.410156 17.757813 25.28125 40.375 27.050781 65.230469h-23.59375v16h23.59375c-4.128906 58.023438-52.539062 104-111.59375 104zm0 0" fill="#4c1d95" data-original="#000000" style="" class=""/><path xmlns="http://www.w3.org/2000/svg" d="m272 340.6875-24-24-24 24v70.273438c-5.121094 5.832031-8 13.3125-8 21.039062 0 17.648438 14.351562 32 32 32s32-14.351562 32-32c0-7.726562-2.878906-15.207031-8-21.039062zm-24 107.3125c-8.824219 0-16-7.175781-16-16 0-4.511719 1.902344-8.71875 5.359375-11.832031l2.640625-2.382813v-70.472656l8-8 8 8v70.472656l2.640625 2.382813c3.457031 3.113281 5.359375 7.320312 5.359375 11.832031 0 8.824219-7.175781 16-16 16zm0 0" fill="#4c1d95" data-original="#000000" style="" class=""/><path xmlns="http://www.w3.org/2000/svg" d="m88 272h-16v136h10.398438l-26.398438 47.519531-26.398438-47.519531h10.398438v-136h-16v120h-21.601562l53.601562 96.480469 53.601562-96.480469h-21.601562zm0 0" fill="#4c1d95" data-original="#000000" style="" class=""/><path xmlns="http://www.w3.org/2000/svg" d="m386.398438 344h21.601562v120h16v-136h-10.398438l26.398438-47.519531 26.398438 47.519531h-10.398438v136h16v-120h21.601562l-53.601562-96.480469zm0 0" fill="#4c1d95" data-original="#000000" style="" class=""/><path xmlns="http://www.w3.org/2000/svg" d="m416 96h16v16h-16zm0 0" fill="#4c1d95" data-original="#000000" style="" class=""/><path xmlns="http://www.w3.org/2000/svg" d="m384 96h16v16h-16zm0 0" fill="#4c1d95" data-original="#000000" style="" class=""/><path xmlns="http://www.w3.org/2000/svg" d="m352 96h16v16h-16zm0 0" fill="#4c1d95" data-original="#000000" style="" class=""/><path xmlns="http://www.w3.org/2000/svg" d="m64 96h16v16h-16zm0 0" fill="#4c1d95" data-original="#000000" style="" class=""/><path xmlns="http://www.w3.org/2000/svg" d="m96 96h16v16h-16zm0 0" fill="#4c1d95" data-original="#000000" style="" class=""/><path xmlns="http://www.w3.org/2000/svg" d="m128 96h16v16h-16zm0 0" fill="#4c1d95" data-original="#000000" style="" class=""/><path xmlns="http://www.w3.org/2000/svg" d="m103.832031 208c20.574219 0 40.496094-6.03125 57.59375-17.441406l86.574219-57.71875 86.574219 57.71875c17.105469 11.410156 37.027343 17.441406 57.59375 17.441406 57.257812 0 103.832031-46.734375 103.832031-104.167969 0-57.257812-46.574219-103.832031-103.832031-103.832031-20.574219 0-40.496094 6.03125-57.59375 17.441406l-86.574219 57.71875-86.574219-57.71875c-17.105469-11.410156-37.027343-17.441406-57.59375-17.441406-57.257812 0-103.832031 46.734375-103.832031 104.167969 0 57.257812 46.574219 103.832031 103.832031 103.832031zm0-192c17.40625 0 34.246094 5.105469 48.71875 14.753906l81.023438 54.023438-14.414063 9.605468-75.480468-50.320312c-11.839844-7.894531-25.617188-12.0625-39.847657-12.0625-39.609375 0-71.832031 32.375-71.832031 72.167969 0 39.617187 32.222656 71.832031 71.832031 71.832031 14.238281 0 28.015625-4.167969 39.839844-12.0625l199.785156-133.183594c14.464844-9.648437 31.3125-14.753906 48.710938-14.753906 48.433593 0 87.832031 39.398438 87.832031 87.832031 0 48.617188-39.398438 88.167969-87.832031 88.167969-17.40625 0-34.246094-5.105469-48.71875-14.753906l-81.023438-54.023438 14.414063-9.605468 75.480468 50.320312c11.839844 7.894531 25.617188 12.0625 39.847657 12.0625 39.609375 0 71.832031-32.375 71.832031-72.167969 0-39.617187-32.222656-71.832031-71.832031-71.832031-14.238281 0-28.015625 4.167969-39.839844 12.0625l-199.785156 133.183594c-14.464844 9.648437-31.3125 14.753906-48.710938 14.753906-48.433593 0-87.832031-39.398438-87.832031-87.832031 0-48.617188 39.398438-88.167969 87.832031-88.167969zm100.902344 88-69.941406 46.625c-9.191407 6.136719-19.898438 9.375-30.960938 9.375-30.792969 0-55.832031-25.046875-55.832031-55.832031 0-30.976563 25.039062-56.167969 55.832031-56.167969 11.0625 0 21.777344 3.238281 30.96875 9.375zm86.53125 0 69.941406-46.625c9.191407-6.136719 19.898438-9.375 30.960938-9.375 30.792969 0 55.832031 25.046875 55.832031 55.832031 0 30.976563-25.039062 56.167969-55.832031 56.167969-11.0625 0-21.777344-3.238281-30.96875-9.375zm0 0" fill="#4c1d95" data-original="#000000" style="" class=""/></g></svg>
