<?xml version="1.0"?>
<svg xmlns="http://www.w3.org/2000/svg" xmlns:xlink="http://www.w3.org/1999/xlink" xmlns:svgjs="http://svgjs.com/svgjs" version="1.1" width="512" height="512" x="0" y="0" viewBox="0 0 512 512" style="enable-background:new 0 0 512 512" xml:space="preserve" class=""><g><g xmlns="http://www.w3.org/2000/svg"><g><path d="m429.606 50.873h-185.261c-9.491 0-17.213 7.721-17.213 17.212v25.615c0 9.49 7.721 17.212 17.213 17.212h185.261c9.491 0 17.213-7.721 17.213-17.212v-25.616c0-9.49-7.722-17.211-17.213-17.211zm2.211 42.827c0 1.219-.992 2.21-2.211 2.21h-185.261c-1.219 0-2.211-.991-2.211-2.21v-25.616c0-1.219.992-2.21 2.211-2.21h185.261c1.219 0 2.211.991 2.211 2.21z" fill="#4c1d95" data-original="#000000" style="" class=""/><path d="m244.344 274.899c-9.49 0-17.212 7.721-17.212 17.212v25.616c0 9.49 7.721 17.212 17.212 17.212h64.229c5.222 13.436 13.23 25.763 23.73 36.262 41.148 41.148 107.753 41.155 148.908 0 41.053-41.054 41.053-107.853-.001-148.908-10.149-10.149-21.872-17.789-34.391-22.92v-19.274c0-9.491-7.721-17.213-17.213-17.213h-185.262c-9.49 0-17.212 7.721-17.212 17.213v25.616c0 9.49 7.721 17.212 17.212 17.212h87.332c-5.584 5.677-10.448 11.876-14.547 18.486h-283.242c-10.413 0-18.886-8.473-18.886-18.886v-59.24c0-10.414 8.472-18.887 18.886-18.887h416.327c10.414 0 18.887 8.472 18.887 18.887v27.041c0 4.143 3.358 7.501 7.501 7.501s7.501-3.358 7.501-7.501v-27.041c0-10.651-4.939-20.17-12.647-26.387 7.708-6.217 12.647-15.736 12.647-26.386v-59.24c0-18.685-15.202-33.887-33.888-33.887h-416.328c-18.685-.002-33.887 15.2-33.887 33.885v59.24c0 10.651 4.939 20.169 12.647 26.386-7.708 6.218-12.647 15.737-12.647 26.388v59.24c0 10.651 4.939 20.169 12.647 26.386-7.708 6.217-12.647 15.736-12.647 26.387v59.24c0 18.686 15.202 33.888 33.887 33.888h178.506v55.204h-27.36c-5.1 0-9.682 2.261-12.795 5.834h-97.785c-9.627 0-17.46 7.833-17.46 17.46v24.398c0 9.627 7.833 17.46 17.46 17.46h97.784c3.114 3.572 7.695 5.834 12.795 5.834h114.038c5.1 0 9.681-2.261 12.794-5.834h97.784c9.627 0 17.46-7.833 17.46-17.46v-24.398c0-9.627-7.833-17.46-17.46-17.46h-97.784c-3.113-3.572-7.695-5.834-12.794-5.834h-27.361v-55.204h24.195c4.143 0 7.501-3.358 7.501-7.501s-3.358-7.501-7.501-7.501h-262.017c-10.413 0-18.886-8.473-18.886-18.887v-59.24c0-10.413 8.472-18.886 18.886-18.886h275.545c-2.468 5.954-4.381 12.137-5.713 18.486h-59.375zm-229.343-164.387v-59.24c0-10.413 8.472-18.886 18.886-18.886h416.327c10.414 0 18.887 8.472 18.887 18.886v59.24c0 10.413-8.473 18.886-18.887 18.886h-416.327c-10.413 0-18.886-8.473-18.886-18.886zm56.994 360.81v-24.398c0-1.356 1.103-2.458 2.458-2.458h93.608v29.314h-93.608c-1.355 0-2.458-1.103-2.458-2.458zm340.111-24.398v24.398c0 1.356-1.103 2.458-2.458 2.458h-93.608v-29.314h93.608c1.356-.001 2.458 1.102 2.458 2.458zm-111.067-6.323v37.044c0 1.086-.883 1.969-1.969 1.969h-114.037c-1.086 0-1.97-.883-1.97-1.969v-37.044c0-1.086.884-1.969 1.97-1.969h114.037c1.086 0 1.969.883 1.969 1.969zm-44.332-16.971h-29.313v-55.204h29.313zm-12.363-103.693c-1.219 0-2.21-.991-2.21-2.21v-25.616c0-1.219.991-2.21 2.21-2.21h57.337c-.643 10.079.132 20.214 2.329 30.036zm88.21 28.298 6.603-6.603c20.039-20.041 20.32-46.003 20.378-46.247.634-11.31 5.399-21.954 13.416-29.972 10.525-10.526 25.247-15.245 39.834-12.919l-24.42 24.42c-7.657 7.659-7.659 20.052 0 27.711l10.513 10.512c7.655 7.657 20.052 7.661 27.71.001l24.421-24.42c2.333 14.591-2.393 29.309-12.919 39.834-13.332 13.332-30.255 13.391-30.468 13.443-17.245.866-33.492 8.095-45.751 20.352l-6.603 6.603c-4.374-3.049-8.509-6.507-12.358-10.356-3.849-3.851-7.307-7.986-10.356-12.359zm138.048 12.357c-27.907 27.908-68.983 33.383-101.865 18.105l3.743-3.743c9.623-9.624 22.371-15.298 35.887-15.977.6-.145 22.287.227 40.331-17.817 14.817-14.818 20.965-35.894 16.446-56.379-2.291-10.384-15.223-14.192-22.781-6.632l-26.382 26.381c-1.794 1.794-4.699 1.796-6.494-.001l-10.514-10.513c-1.794-1.794-1.796-4.698.001-6.495l26.38-26.38c7.525-7.523 3.804-20.48-6.631-22.782-20.489-4.516-41.563 1.631-56.379 16.447-10.629 10.63-16.945 24.743-17.785 39.719-.059.249-.124 20.615-16.009 36.499l-3.743 3.743c-5.456-11.743-8.342-24.65-8.342-38.019 0-24.208 9.458-46.858 26.447-63.846 35.203-35.205 92.485-35.206 127.691 0 35.204 35.204 35.204 92.487-.001 127.69zm-228.468-154.878v-25.616c0-1.219.991-2.211 2.21-2.211h185.262c1.219 0 2.211.992 2.211 2.211v14.407c-27.455-6.681-57.095-2.208-81.626 13.419h-105.847c-1.219 0-2.21-.991-2.21-2.21z" fill="#4c1d95" data-original="#000000" style="" class=""/><path d="m75.17 51.954c-15.958 0-28.939 12.982-28.939 28.938s12.982 28.938 28.939 28.938 28.938-12.982 28.938-28.938-12.981-28.938-28.938-28.938zm0 42.875c-7.685 0-13.938-6.252-13.938-13.937s6.253-13.937 13.938-13.937 13.937 6.252 13.937 13.937-6.251 13.937-13.937 13.937z" fill="#4c1d95" data-original="#000000" style="" class=""/><path d="m46.231 192.906c0 15.957 12.982 28.938 28.939 28.938s28.938-12.982 28.938-28.938-12.982-28.938-28.938-28.938c-15.957 0-28.939 12.981-28.939 28.938zm42.876 0c0 7.685-6.252 13.937-13.937 13.937s-13.938-6.252-13.938-13.937 6.253-13.937 13.938-13.937 13.937 6.252 13.937 13.937z" fill="#4c1d95" data-original="#000000" style="" class=""/><path d="m46.231 304.919c0 15.957 12.982 28.938 28.939 28.938s28.938-12.982 28.938-28.938c0-15.957-12.982-28.938-28.938-28.938-15.957-.001-28.939 12.981-28.939 28.938zm42.876 0c0 7.685-6.252 13.937-13.937 13.937s-13.938-6.252-13.938-13.937 6.253-13.937 13.938-13.937 13.937 6.251 13.937 13.937z" fill="#4c1d95" data-original="#000000" style="" class=""/></g></g></g></svg>
